Coordinates
version=1
nRows=54
nColumns=12
inDegrees=yes

Units are S.I. units (second, meters, Newtons, ...)
Angles are in degrees

endheader
time	SC_y	SC_z	SC_x	AC_y	AC_z	AC_x	GH_y	GH_z	GH_yy	EL_x	PS_y
       0.0              -39.82          6.631          56.57          54.34         -5.563          8.692         -109.3           86.4         -111.2          121.9          116.5
   0.03269              -39.83          6.633          56.57          54.34         -5.562          8.689         -109.3          86.39         -111.2          121.9          116.5
   0.06538              -39.83          6.635          56.56          54.35         -5.562          8.686         -109.3          86.38         -111.2          121.9          116.5
   0.09807              -39.83          6.637          56.55          54.35         -5.562          8.683         -109.3          86.38         -111.2          121.9          116.5
    0.1308              -39.83           6.64          56.54          54.35         -5.561          8.679         -109.3          86.37         -111.1          121.9          116.5
    0.1635              -39.83          6.642          56.54          54.35         -5.561          8.675         -109.3          86.36         -111.1          121.9          116.5
    0.1961              -39.83          6.645          56.53          54.36          -5.56          8.671         -109.3          86.35         -111.1          121.8          116.5
    0.2288              -39.84          6.647          56.52          54.36          -5.56          8.667         -109.3          86.34         -111.1          121.8          116.5
    0.2615              -39.84           6.65          56.51          54.36         -5.559          8.662         -109.3          86.32         -111.1          121.8          116.5
    0.2942              -39.84          6.654           56.5          54.37         -5.559          8.657         -109.3          86.31         -111.0          121.8          116.4
    0.3269              -39.84          6.657          56.49          54.37         -5.558          8.651         -109.3           86.3         -111.0          121.7          116.4
    0.3596              -39.84          6.661          56.47          54.38         -5.558          8.645         -109.3          86.28         -111.0          121.7          116.4
    0.3923              -39.85          6.665          56.46          54.38         -5.557          8.639         -109.2          86.27         -110.9          121.7          116.4
     0.425              -39.85          6.669          56.45          54.39         -5.556          8.632         -109.2          86.25         -110.9          121.7          116.4
    0.4577              -39.85          6.674          56.43          54.39         -5.555          8.625         -109.2          86.23         -110.9          121.6          116.3
    0.4904              -39.86          6.679          56.41           54.4         -5.554          8.617         -109.2          86.21         -110.8          121.6          116.3
    0.5231              -39.86          6.684           56.4           54.4         -5.554          8.608         -109.2          86.19         -110.8          121.5          116.3
    0.5557              -39.86           6.69          56.38          54.41         -5.552          8.598         -109.2          86.16         -110.8          121.5          116.3
    0.5884              -39.87          6.697          56.35          54.42         -5.551          8.588         -109.2          86.14         -110.7          121.5          116.2
    0.6211              -39.87          6.704          56.33          54.43          -5.55          8.576         -109.1          86.11         -110.6          121.4          116.2
    0.6538              -39.88          6.712           56.3          54.44         -5.549          8.564         -109.1          86.08         -110.6          121.3          116.2
    0.6865              -39.88          6.721          56.27          54.45         -5.547           8.55         -109.1          86.04         -110.5          121.3          116.1
    0.7192              -39.89           6.73          56.24          54.46         -5.546          8.535         -109.1           86.0         -110.4          121.2          116.1
    0.7519              -39.89          6.741          56.21          54.47         -5.544          8.518         -109.1          85.96         -110.4          121.1          116.0
    0.7846               -39.9          6.753          56.17          54.48         -5.542          8.499         -109.0          85.92         -110.3          121.0          116.0
    0.8173              -39.91          6.766          56.13           54.5         -5.539          8.478         -109.0          85.86         -110.2          120.9          115.9
      0.85              -39.92          6.781          56.08          54.52         -5.537          8.454         -109.0           85.8         -110.1          120.8          115.8
    0.8827              -39.93          6.797          56.02          54.54         -5.534          8.428         -108.9          85.74         -109.9          120.7          115.8
    0.9153              -39.94          6.816          55.96          54.56         -5.531          8.398         -108.9          85.66         -109.8          120.6          115.7
     0.948              -39.96          6.837          55.89          54.58         -5.527          8.364         -108.8          85.58         -109.6          120.4          115.6
    0.9807              -39.97          6.862          55.81          54.61         -5.523          8.326         -108.7          85.48         -109.4          120.2          115.5
     1.013              -39.99           6.89          55.72          54.64         -5.518          8.281         -108.7          85.37         -109.2          120.0          115.3
     1.046              -40.01          6.922          55.61          54.68         -5.512           8.23         -108.6          85.24         -109.0          119.8          115.2
     1.079              -40.03          6.959          55.48          54.73         -5.506           8.17         -108.5          85.09         -108.7          119.5          115.0
     1.111              -40.06          7.003          55.34          54.78         -5.498          8.101         -108.4          84.92         -108.3          119.2          114.8
     1.144              -40.09          7.055          55.17          54.84          -5.49          8.018         -108.3          84.71         -107.9          118.8          114.6
     1.177              -40.13          7.116          54.96          54.91         -5.479          7.921         -108.1          84.46         -107.5          118.4          114.3
      1.21              -40.18           7.19          54.72           55.0         -5.466          7.804         -107.9          84.17         -106.9          117.8          113.9
     1.242              -40.24          7.279          54.43           55.1         -5.451          7.662         -107.7          83.82         -106.2          117.2          113.5
     1.275              -40.31          7.388          54.07          55.23         -5.432          7.489         -107.4          83.38         -105.4          116.4          113.0
     1.308              -40.39          7.522          53.62          55.39         -5.409          7.275         -107.1          82.85         -104.4          115.4          112.4
      1.34               -40.5          7.689          53.07          55.58          -5.38          7.009         -106.7          82.18         -103.1          114.2          111.6
     1.373              -40.63            7.9          52.37          55.83         -5.343          6.673         -106.1          81.34         -101.4          112.6          110.6
     1.406               -40.8          8.168          51.48          56.15         -5.297          6.247         -105.5          80.27         -99.38          110.6          109.3
     1.438              -41.02          8.511          50.34          56.55         -5.238          5.701         -104.6           78.9         -96.75          108.1          107.7
     1.471               -41.3          8.951          48.88          57.07         -5.162            5.0         -103.5          77.14         -93.36          104.9          105.7
     1.504              -41.66          9.514          47.02          57.73         -5.065          4.105         -102.1           74.9         -89.03          100.8          103.0
     1.536              -42.11          10.22          44.68          58.56         -4.942           2.98         -100.3          72.08         -83.59          95.57          99.73
     1.569              -42.66          11.08          41.82          59.57         -4.793          1.609         -98.15          68.64         -76.96          89.24           95.7
     1.602              -43.29          12.08          38.51          60.74         -4.621         0.0196         -95.64          64.65         -69.28           81.9          91.02
     1.635              -43.98          13.16          34.93          62.01         -4.434         -1.701         -92.92          60.33         -60.96          73.96          85.96
     1.667              -44.67          14.24          31.34          63.28         -4.247         -3.422          -90.2          56.02         -52.64          66.01          80.89
       1.7              -45.31          15.24          28.03          64.46         -4.074         -5.012          -87.7          52.03         -44.96          58.68          76.21
     1.733              -45.86          16.11          25.18          65.47         -3.925         -6.383         -85.53          48.59         -38.33          52.35          72.18
